<?xml version="1.0" encoding="utf-8"?>
<!-- Generator: Adobe Illustrator 24.0.2, SVG Export Plug-In . SVG Version: 6.00 Build 0)  -->
<svg version="1.1" id="Layer_1" xmlns="http://www.w3.org/2000/svg" xmlns:xlink="http://www.w3.org/1999/xlink" x="0px" y="0px"
	 viewBox="0 0 488 121.2" style="enable-background:new 0 0 488 121.2;" xml:space="preserve">
<g>
	<path d="M381.7,60.7c0-19.5,0-39.1,0-58.6c0-1.7,0.4-2.1,2.1-2.1c34.1,0.1,68.1,0.1,102.2,0c1.6,0,2,0.4,2,2
		c-0.1,7.5-0.1,15.1,0,22.6c0,1.5-0.4,1.9-1.9,1.9c-24.2,0-48.4,0-72.6-0.1c-1.8,0-2.2,0.5-2.2,2.2c0.1,5.2,0.1,10.3,0,15.5
		c0,1.5,0.3,1.9,1.9,1.9c21.7-0.1,43.4,0,65.2-0.1c1.7,0,2.1,0.3,2.1,2.1c-0.1,7.5-0.1,14.9,0,22.4c0,1.6-0.3,2.1-2.1,2.1
		c-21.6-0.1-43.2,0-64.8-0.1c-1.9,0-2.3,0.4-2.3,2.3c0.1,5.6,0.1,11.1,0,16.7c0,1.7,0.3,2.2,2.1,2.2c24.1-0.1,48.2,0,72.3-0.1
		c1.8,0,2.4,0.3,2.3,2.2c-0.1,7.9-0.1,15.7,0,23.6c0,1.4-0.2,1.9-1.8,1.9c-34.2-0.1-68.4-0.1-102.5,0c-1.5,0-1.9-0.4-1.9-1.9
		C381.7,99.8,381.7,80.3,381.7,60.7z"/>
	<path d="M345.7,58.6c4.8,1.9,8.6,4.4,11.7,7.9c3.4,3.9,5.5,8.4,5.5,13.6c0.2,13.2,0.1,26.4,0.2,39.7c0,1.2-0.5,1.3-1.5,1.3
		c-8.6,0-17.3,0-25.9,0c-1.3,0-1.6-0.4-1.6-1.6c0-9.8,0-19.7,0-29.5c0-7.4-3.1-12.9-9.8-16.2c-2.3-1.2-4.9-1.5-7.4-1.5
		c-9.9,0-19.8,0.1-29.7,0c-1.6,0-2.1,0.4-2.1,2.1c0.1,14.9,0,29.9,0.1,44.8c0,1.6-0.3,2-2,2c-8.6-0.1-17.1-0.1-25.7,0
		c-1.6,0-1.9-0.5-1.9-1.9c0-39,0-78.1,0-117.1c0-1.4,0.2-2,1.8-2c21.7,0.1,43.5,0,65.2,0.1c8.3,0,16.4,1.1,24.1,4.6
		c10.5,4.7,15.8,13,16.5,24.4c0.5,8.1-1.2,15.6-6.8,21.9C353.6,54.4,350.1,56.8,345.7,58.6z M307.1,26.7c-6.7,0-13.4,0.1-20.1,0
		c-1.6,0-1.9,0.5-1.9,1.9c0.1,5.2,0.1,10.5,0,15.7c0,1.5,0.5,1.7,1.9,1.7c13.1-0.1,26.2,0,39.3-0.1c0.9,0,1.8,0,2.7-0.3
		c4.8-1.4,7.8-5.9,7.2-10.8c-0.6-4.7-4.6-8.1-9.6-8.1C320,26.7,313.5,26.7,307.1,26.7z"/>
	<path d="M85.7,27.6c-8.5,0-17-0.2-25.5,0.4c-11.1,0.9-20.5,5.1-26.8,14.8c-9.6,14.8-5.2,43.1,21.4,48c8.1,1.5,16.4,1.1,24.7,1.3
		c10.8,0.3,21.6-0.1,32.4-0.2c1.8,0,2.1,0.5,2.1,2.1c-0.1,8.5-0.2,17-0.2,25.5c0,1.3-0.3,1.6-1.6,1.6c-15.8-0.2-31.6,0.4-47.3-0.4
		c-10-0.5-20.1-1.7-29.3-5.9C14.4,105.1,2,88.7,0.2,65.2c-2-25.3,11.7-48.8,34.6-59.5c7.4-3.5,15.3-4.9,23.4-5.2
		c14.7-0.6,29.5-0.2,44.3-0.3c3.3,0,6.5,0,9.8-0.1c1.1,0,1.6,0.2,1.6,1.4c-0.1,8.2-0.1,16.5,0,24.7c0,1.6-0.8,1.4-1.8,1.4
		C103.2,27.6,94.5,27.6,85.7,27.6z"/>
</g>
<path d="M222,58.7c8.7,4,15.2,9.8,17.8,19c3.8,13.3-0.6,30.8-19.5,38.8c-8.5,3.6-17.5,4.5-26.6,4.5c-19.9,0-39.9,0-59.8,0
	c-1.5,0-1.9-0.4-1.9-1.9c0-39.1,0-78.2,0-117.2c0-1.2,0-1.9,1.6-1.9c21.1,0.1,42.3,0,63.4,0.1c8.5,0.1,16.8,1.1,24.7,4.3
	c13.5,5.6,19.8,16.5,17.8,31c-0.4,2.8-0.9,5.5-1.9,8.2c-2.4,6.5-6.8,11.1-13.2,13.9C223.9,57.9,223.1,58.2,222,58.7z M182.9,92.8
	C182.9,92.8,182.9,92.7,182.9,92.8c6.5,0,12.9,0.1,19.4,0c5.5-0.1,10-4.8,10-10.3c0-5.4-4.5-9.8-10.1-9.9c-12.8,0-25.7,0-38.5,0
	c-1.4,0-1.7,0.4-1.7,1.7c0.1,5.6,0.1,11.1,0,16.7c0,1.5,0.3,1.9,1.9,1.9C170.1,92.7,176.5,92.8,182.9,92.8z M183.5,26.4
	c-6.6,0-13.3,0-19.9,0c-0.9,0-1.7-0.1-1.7,1.3c0.1,5.7,0.1,11.5,0,17.2c0,1.1,0.4,1.4,1.4,1.4c3.1-0.1,6.3,0,9.4,0
	c10,0,20.1,0,30.1-0.1c5.3,0,9.8-4.8,9.7-10.3c-0.1-5.3-4.4-9.5-9.7-9.5C196.4,26.4,189.9,26.4,183.5,26.4z"/>
</svg>
