<svg xmlns="http://www.w3.org/2000/svg" width="93" height="45" viewBox="0 0 93 45"><g><g><path d="M5.25 13.33c2.459 0 5.13-.809 5.13-3.813 0-2.63-2.166-3.073-4.695-3.46C3.961 5.792 2.03 5.35 2.03 3.951c0-1.446 1.546-2.083 2.786-2.083 2.095 0 3.363 1.059 3.398 2.914l1.71-.298C9.654 1.551 7.488.54 4.852.54c-2.074 0-4.51.955-4.51 3.481 0 2.368 2.18 3.039 4.168 3.496 1.909.443 4.167.408 4.167 2.118 0 1.8-1.603 2.353-3.476 2.353-1.967 0-3.456-1.093-3.456-3.073L0 9.095c0 2.88 2.45 4.236 5.25 4.236z"/></g><g><path d="M22.939 2.097h2.657c1.546 0 3.42.035 3.42 2.367 0 2.14-1.874 2.243-3.434 2.243h-2.643zM21.3 13.09h1.639V8.07h2.636c2.294 0 5.037-.353 5.037-3.607 0-3.356-2.75-3.744-5.023-3.744H21.3z"/></g><g><path d="M44.58 7.98l1.418-3.73c.292-.775.492-1.343.713-1.993h.021c.185.533.47 1.342.727 1.993l1.439 3.73zm6.27 5.109h1.724L47.615.72H45.87l-4.98 12.369h1.745l1.404-3.696h5.4z"/></g><g><path d="M67.711 13.33c2.672 0 4.603-1.252 5.622-3.515l-1.874-.478c-.506 1.412-1.674 2.616-3.748 2.616-1.453 0-2.621-.477-3.277-1.377-.62-.865-.905-2.035-.905-3.64 0-1.593.293-2.776.912-3.62.691-.935 1.853-1.399 3.313-1.399 2.052 0 3.292 1.343 3.676 2.824l1.803-.332C72.513 1.827 70.312.54 67.71.54c-3.91 0-6.041 2.65-6.041 6.395 0 4.119 2.187 6.396 6.041 6.396z"/></g><g><path d="M84.16 13.089h8.222v-1.433h-6.59V7.558h5.913V6.126H85.79V2.153h6.59V.72H84.16z"/></g><g><path d="M0 44.249h1.653v-5.53h6.383v5.53h1.66V31.88h-1.66v5.406H1.653V31.88H0z"/></g><g><path d="M26.011 43.063c-1.439 0-2.564-.498-3.277-1.377-.491-.616-.912-1.924-.912-3.64 0-1.593.342-2.9.962-3.697.549-.692 1.639-1.322 3.292-1.322 1.439 0 2.457.478 3.113 1.398.634.886.983 2.015.983 3.62 0 1.592-.342 2.755-.983 3.641-.648.92-1.667 1.377-3.178 1.377zm0 1.378c3.855 0 6.02-2.616 6.02-6.396 0-3.73-2.165-6.395-6.02-6.395-3.91 0-6.041 2.65-6.041 6.395 0 4.119 2.187 6.396 6.041 6.396z"/></g><g><path d="M46.756 44.463c3.234 0 4.98-1.523 4.98-4.291V31.88h-1.653v8.285c0 1.959-1.568 2.88-3.327 2.88-1.767 0-3.313-.921-3.313-2.88V31.88H41.79v8.285c.007 2.775 1.731 4.298 4.966 4.298z"/></g><g><path d="M67.6 44.444c2.459 0 5.13-.81 5.13-3.814 0-2.63-2.166-3.073-4.695-3.46-1.724-.264-3.655-.707-3.655-2.105 0-1.446 1.546-2.083 2.786-2.083 2.095 0 3.363 1.059 3.398 2.914l1.71-.298c-.27-2.934-2.436-3.938-5.072-3.938-2.073 0-4.51.955-4.51 3.481 0 2.368 2.18 3.039 4.168 3.496 1.91.443 4.167.408 4.167 2.118 0 1.8-1.602 2.353-3.476 2.353-1.967 0-3.456-1.094-3.456-3.073l-1.745.18c-.007 2.872 2.45 4.229 5.25 4.229z"/></g><g><path d="M84.2 44.249h8.222v-1.433h-6.583v-4.098h5.913v-1.432h-5.913v-3.973h6.583V31.88H84.2z"/></g></g></svg>