<svg width="73" height="20" viewBox="0 0 73 20" fill="none" xmlns="http://www.w3.org/2000/svg">
<path d="M72.6496 15.5093V14.5181L72.2414 15.1011H72.0665L71.7167 14.5181V15.5093H71.4252V13.9933H71.775L72.2414 14.693L72.7079 13.9933H72.9994V15.5093H72.6496ZM70.3757 15.5093V14.2849H69.9676V14.0516H71.1337V14.2849H70.7255V15.5093H70.3757ZM66.994 16.9086C67.4021 16.6754 67.752 16.3838 67.8103 15.7425C67.8103 14.9845 67.4021 14.7513 66.236 14.7513H65.4781V16.9086H66.994ZM64.4869 19.9404L64.5452 13.9933H66.236C67.8686 13.9933 68.7432 14.5764 68.6848 15.7425C68.6848 16.4421 68.2767 17.0252 67.4604 17.375L69.2679 19.8821V19.9987H68.2184L66.6442 17.7249H65.3615V19.9404H64.4869ZM61.3384 17.4916L60.4056 14.7513L59.3561 17.4916H61.3384ZM57.5486 19.8821V19.7655L59.8808 13.935H61.0469L63.1459 19.8238V19.9404H62.213L61.6883 18.3662H59.0645L58.4232 19.9404L57.5486 19.8821ZM54.5168 19.8238L54.5751 14.6347H52.4761V13.8767L57.6069 13.935V14.693H55.5079L55.4496 19.8821H54.5168V19.8238ZM46.9954 19.474V18.5994H47.112C47.6368 18.8326 48.3364 19.0659 48.9778 19.0659C50.0273 19.0659 50.552 18.7743 50.552 18.1913C50.552 17.6082 50.1439 17.375 49.5025 17.1418L48.5697 16.792C47.6951 16.5004 47.287 15.9757 47.287 15.2177C47.287 14.1683 48.2781 13.6435 49.6775 13.6435C50.2605 13.6435 51.0768 13.8184 51.4266 13.9933V14.8096H51.31C50.7853 14.5764 50.0856 14.4598 49.6775 14.4598C48.8029 14.4598 48.2781 14.6347 48.2198 15.2177C48.2198 15.7425 48.628 15.9174 49.0944 16.034L50.0273 16.3838C50.9019 16.6754 51.5432 17.1418 51.5432 18.133C51.5432 19.1825 50.552 19.8238 49.0361 19.8238C48.1615 19.8821 47.5202 19.7072 46.9954 19.474ZM44.9548 16.7337C44.9548 15.451 44.2551 14.4598 42.8558 14.4598C41.4565 14.4598 40.6985 15.3927 40.6985 16.7337C40.6985 18.0164 41.3982 19.0076 42.7975 19.0076C44.1968 19.0076 44.9548 18.0747 44.9548 16.7337ZM39.7656 16.7337C39.7656 15.1594 40.8734 13.6435 42.8558 13.7018C44.8965 13.7018 45.9459 15.2177 45.8876 16.792C45.8876 18.3662 44.7798 19.8821 42.7975 19.8238C40.7568 19.8238 39.7073 18.3079 39.7656 16.7337ZM36.7338 16.6171C37.1419 16.3838 37.4917 16.0923 37.55 15.451C37.55 14.693 37.1419 14.4598 35.9758 14.4598H35.2178V16.6171H36.7338ZM34.2267 19.6489L34.285 13.7018H35.9758C37.6083 13.7018 38.4829 14.2849 38.4246 15.451C38.4246 16.1506 38.0165 16.7337 37.2002 17.0835L39.0077 19.5906V19.7072H38.0165L36.4423 17.4916H35.1595V19.7072L34.2267 19.6489ZM27.3467 17.2584L27.405 13.6435H28.3379L28.2796 17.2001C28.2796 18.1913 28.6877 18.9493 29.9704 18.9493C31.1948 18.9493 31.6029 18.2496 31.6029 17.2584L31.6612 13.7018H32.5941L32.5358 17.3167C32.5358 18.716 31.7196 19.7072 29.9121 19.7072C28.0463 19.7072 27.3467 18.5411 27.3467 17.2584ZM21.6328 19.5323L21.6911 13.5852L25.6558 13.6435V14.4015H22.624V16.034H25.306V16.8503H22.624V18.8326H25.8308V19.6489L21.6328 19.5323Z" fill="#1D1D1B"/>
<path d="M18.1328 6.41354C16.6752 7.75455 15.4508 8.10437 13.6433 8.92064C12.5939 9.38708 11.4861 9.85352 10.3783 10.32C10.9613 8.51251 11.8942 6.76336 13.0603 5.18913C13.6433 4.37286 14.1681 3.96473 14.926 3.32338C15.9172 2.50711 17.6081 1.74914 18.7159 2.85694C19.1823 3.32337 19.2989 3.96473 19.2406 4.60608C19.0657 5.48065 18.7742 5.88879 18.1328 6.41354ZM20.9314 6.0637C21.2813 5.59726 21.6311 5.07252 21.806 4.54778C21.8643 4.43117 21.8643 4.25626 21.9226 4.13965C21.9226 3.96473 21.9809 3.84812 21.9809 3.6732C21.9809 1.69084 20.0569 0 17.6664 0H17.1999C14.0515 0 11.8942 1.92406 10.6698 3.09016C8.16268 5.53896 6.47184 8.68742 6.0054 12.1857C5.36405 12.4189 4.781 12.6522 4.13965 12.8271C3.5566 13.002 3.03185 13.1769 2.44881 13.2935C1.92406 13.4101 1.45762 13.4684 0.932879 13.5267C0.69966 13.5267 0.408134 13.5267 0.174914 13.5267C0.0583044 13.5267 0 13.7599 0 13.8183C0 14.2264 0.466439 14.8094 1.74915 14.8094C2.79863 14.8094 4.25626 14.5179 5.88879 14.0515V13.8183C5.88879 15.5674 6.23862 17.1999 7.05489 18.1328C7.57964 18.7742 8.51251 19.0074 9.27048 19.124C10.2617 19.2406 11.3111 19.0657 12.244 18.7159C14.2847 18.0745 16.0921 16.9667 17.8413 15.684C18.0745 15.5091 18.3077 15.3342 18.541 15.1593C18.7159 15.0427 18.8325 14.926 19.0074 14.8094C19.1823 14.6345 19.4738 14.4013 19.6487 14.2264C19.707 14.1681 19.8237 14.0515 19.882 13.9932C19.9403 13.8766 19.9986 13.7599 19.9986 13.585C19.9986 13.5267 19.9986 13.4684 19.9403 13.4101C19.9403 13.4101 19.9403 13.3518 19.882 13.3518C19.8237 13.3518 19.8237 13.3518 19.7654 13.3518C19.5904 13.4101 19.4155 13.5267 19.2989 13.585C19.124 13.7016 18.9491 13.7599 18.7742 13.8766C18.5993 13.9349 18.4243 14.0515 18.2494 14.1098C17.9579 14.2264 17.6664 14.4013 17.3165 14.5179C17.1416 14.5762 17.025 14.6928 16.8501 14.7511C15.8006 15.2176 14.8094 15.6257 13.7016 15.9755C12.5939 16.3254 10.903 16.7918 10.145 15.5091C9.85353 15.0427 9.85353 14.4013 9.85353 13.8766C9.85353 13.4101 9.91183 13.002 9.97013 12.5355C10.6698 12.3023 11.3111 12.0108 12.0108 11.7776C13.2352 11.3111 14.4596 10.8447 15.7423 10.32C16.442 10.0867 17.0833 9.79522 17.783 9.562C18.366 9.38708 19.0074 9.15386 19.5904 8.97895C20.2901 8.74573 20.9315 8.62912 21.6311 8.51251C23.0887 8.27929 24.4881 8.3376 25.9457 8.57082C26.587 8.68742 27.2284 8.80403 27.8697 8.92064C29.0941 9.21217 30.3185 9.562 31.5429 9.97013C33.467 10.5532 35.3911 10.8447 37.3734 11.0779C37.7233 11.1362 38.0148 11.1362 38.3646 11.1362C40.1138 11.1945 41.9212 10.903 43.6703 10.4366C44.7198 10.145 45.6527 9.73691 46.6439 9.27047C46.7022 9.27047 46.7605 9.21217 46.8188 9.21217C47.1103 9.03725 47.3436 8.92065 47.6351 8.74573C48.0432 8.45421 48.393 8.16268 48.8012 7.87116C48.9761 7.69624 49.151 7.57963 49.3259 7.40472C49.4425 7.2298 49.6758 7.11319 49.7341 6.93828C49.7924 6.82167 49.7341 6.70506 49.7341 6.58845C49.7341 6.53014 49.6758 6.47184 49.6175 6.53014C49.4425 6.58845 49.2676 6.70506 49.0344 6.82167C48.6263 6.99658 48.2764 7.1715 47.8683 7.34641C46.9937 7.69624 46.1192 7.98777 45.2446 8.16268C42.7375 8.62912 40.0555 8.80404 37.49 8.45421C34.9829 8.10438 32.5341 7.34641 30.027 6.87997C29.2691 6.70506 28.4528 6.58845 27.6948 6.47184C26.8785 6.35523 26.1206 6.29693 25.3043 6.23862C24.488 6.18032 23.7301 6.18032 22.9138 6.23862C22.1559 6.29693 21.3396 6.41353 20.5816 6.53014H20.5233V6.47184C20.6982 6.29693 20.8148 6.18031 20.9314 6.0637Z" fill="#1D1D1B"/>
</svg>
