<svg width="29" height="29" viewBox="0 0 29 29" fill="none" xmlns="http://www.w3.org/2000/svg">
<path d="M27.5866 0.0666992L26.1866 0.614536C24.9083 1.1015 23.7518 1.83195 22.8083 2.80588L19.3082 6.27552L2.84266 3.01893C2.3557 2.92762 1.8383 3.0798 1.47307 3.44503L0.651317 4.26678C0.529575 4.38852 0.560011 4.63201 0.712188 4.72331L14.1646 11.5408L7.77319 18.6323L1.35133 16.9279C1.13828 16.867 0.8948 16.9279 0.742623 17.0801L0.0730449 17.7497C-0.0486966 17.8714 -0.0182612 18.1149 0.164351 18.2366L5.94707 21.6454L5.76446 22.3454C5.64272 22.8628 6.09925 23.3193 6.61665 23.1976L7.31666 23.015L10.7254 28.7977C10.8167 28.9803 11.0602 29.0107 11.2124 28.8586L11.882 28.189C12.0341 28.0368 12.095 27.7933 12.0341 27.5803L10.3602 21.128L17.4516 14.7366L24.2692 28.189C24.3605 28.3716 24.5735 28.402 24.7257 28.2499L25.5475 27.4281C25.9127 27.0629 26.0649 26.5455 25.9735 26.0585L22.6561 9.62341L26.1562 6.12334C27.0997 5.17984 27.8605 4.0233 28.3475 2.74501L28.8953 1.34499C29.1693 0.553665 28.3779 -0.237655 27.5866 0.0666992Z" fill="black"/>
</svg>
