<svg width="144" height="31" viewBox="0 0 144 31" fill="none" xmlns="http://www.w3.org/2000/svg">
<path d="M141.747 15.3416L144.001 7.62742H142.267L140.794 13.088L139.32 7.62742H137.76L136.2 13.088L134.9 7.62742H133.08L135.073 15.3416H136.893L138.454 9.881L139.927 15.3416H141.747ZM132.386 11.5279C132.386 9.10092 130.913 7.45407 128.573 7.45407C126.232 7.45407 124.759 9.01424 124.759 11.5279C124.759 13.9548 126.232 15.515 128.573 15.515C130.826 15.515 132.386 13.9548 132.386 11.5279ZM128.573 8.92756C129.699 8.92756 130.479 9.881 130.479 11.5279C130.479 13.1747 129.699 14.1281 128.573 14.1281C127.446 14.1281 126.666 13.1747 126.666 11.5279C126.579 9.881 127.359 8.92756 128.573 8.92756ZM123.805 9.36095C123.979 9.36095 124.152 9.36094 124.325 9.44762V7.54074C124.239 7.54074 124.152 7.54074 124.065 7.54074C123.112 7.54074 122.072 8.0608 121.465 8.84089V7.71409H119.732V15.4283H121.552V10.4011C122.245 9.62097 122.852 9.36095 123.805 9.36095ZM116.091 15.3416H117.911V10.8344C117.911 9.62097 117.825 8.92757 117.305 8.32083C116.871 7.80077 116.178 7.54074 115.484 7.54074C114.444 7.54074 113.578 8.0608 112.884 8.66753V4.76709H111.151V15.4283H112.884V10.141C113.318 9.62098 114.184 9.10091 114.964 9.10091C115.311 9.10091 115.571 9.18759 115.831 9.44762C116.178 9.79433 116.178 10.5744 116.178 11.2678L116.091 15.3416ZM107.944 15.515C108.55 15.515 109.244 15.3416 109.764 15.1683V13.6948C109.33 13.8681 108.897 13.9548 108.377 13.9548C108.117 13.9548 107.77 13.8681 107.597 13.6948C107.424 13.5214 107.424 13.3481 107.424 12.828V9.10091H109.244L109.764 7.62742H107.424V5.54718H105.69V7.62742H104.39V9.10091H105.69V12.9147C105.69 14.1281 105.863 14.8216 106.47 15.1683C106.903 15.4283 107.424 15.515 107.944 15.515ZM103.09 15.2549V10.0544C103.09 8.23416 102.05 7.45407 99.796 7.45407C99.0159 7.45407 97.9758 7.62742 97.4557 7.71409V9.27427C97.9758 9.01424 98.7559 8.84089 99.536 8.84089C100.663 8.84089 101.269 9.27427 101.269 10.141C101.269 10.141 101.269 10.2277 101.269 10.3144C101.096 10.3144 100.836 10.3144 100.663 10.3144C98.2358 10.3144 96.6756 11.3545 96.6756 13.0014C96.6756 14.6482 97.8891 15.515 100.229 15.515C101.183 15.6016 102.396 15.4283 103.09 15.2549ZM101.356 11.7879V13.9548C101.096 14.0415 100.663 14.1281 100.316 14.1281C99.2759 14.1281 98.6692 13.6948 98.6692 13.0014C98.6692 12.3079 99.4493 11.7879 100.576 11.7879C100.923 11.7012 101.096 11.7012 101.356 11.7879ZM95.7222 11.3545C95.7222 8.84089 94.5954 7.45407 92.5152 7.45407C90.3483 7.45407 88.7881 9.01424 88.7881 11.3545C88.7881 13.7814 90.4349 15.4283 92.9486 15.4283C93.7286 15.4283 94.5954 15.3416 95.2888 15.0816V13.5214C94.6821 13.7814 93.8153 13.8681 93.2086 13.8681C92.0818 13.8681 90.7816 13.2614 90.695 11.9612H95.7222C95.6355 11.8746 95.7222 11.6145 95.7222 11.3545ZM93.8153 10.4011V10.5744H90.6083C90.6083 9.62098 91.3884 8.84089 92.2551 8.84089C93.2086 8.84089 93.7286 9.44762 93.8153 10.4011ZM85.2344 15.3416V10.6611H80.7272V15.3416H78.8203V4.68042H80.7272V9.10091H85.2344V4.68042H87.1412V15.3416H85.2344Z" fill="#1D1D1B"/>
<path d="M60.2699 15.0816C60.1833 14.9083 60.0966 14.8216 60.0099 14.7349C60.0099 14.7349 59.2298 14.0415 58.103 13.0014C55.0694 10.2277 49.4354 5.2872 48.6553 5.11384C48.3953 5.02717 48.3086 5.11385 48.3086 5.2872C48.4819 6.41399 54.636 14.8216 54.636 14.8216C54.7226 14.995 54.8093 15.0816 54.8093 15.1683C54.8093 15.1683 54.8093 15.1683 54.8093 15.255C54.8093 15.3417 54.7226 15.4283 54.636 15.515C54.636 15.515 48.5686 24.1826 48.3086 25.0494C48.3086 25.1361 48.3086 25.1361 48.3086 25.2228C48.3086 25.3961 48.4819 25.4828 48.6553 25.3961C49.6954 25.0494 55.156 20.1955 58.103 17.5086C59.2298 16.4685 60.0099 15.775 60.0099 15.775C60.0966 15.6884 60.2699 15.515 60.3566 15.4283V15.3417C60.2699 15.1683 60.2699 15.0816 60.2699 15.0816ZM67.4641 24.9627C67.204 24.1826 61.6568 16.2951 61.1367 15.515C61.1367 15.6017 61.1367 15.6017 61.1367 15.6884C60.9633 16.1217 60.7033 16.3818 60.53 16.4684C60.4433 16.5551 59.6632 17.2485 58.6231 18.202C61.6568 20.9756 66.2506 24.8761 67.1174 25.2228C67.2907 25.3094 67.4641 25.2228 67.4641 25.0494V24.9627ZM58.6231 12.2213C59.6632 13.1748 60.4433 13.8682 60.53 13.9548C60.79 14.2149 60.9633 14.3882 61.05 14.6482C61.05 14.6482 61.05 14.6482 61.05 14.7349C61.05 14.7349 67.204 6.32731 67.3774 5.20052C67.3774 5.02717 67.2907 4.94049 67.0307 5.02717C66.424 5.20052 61.6568 9.36099 58.6231 12.2213C58.5364 12.1346 58.5364 12.1346 58.6231 12.2213Z" fill="#1D1D1B"/>
<path d="M57.9293 0C49.6084 0 42.8477 6.76076 42.8477 15.0817C42.8477 23.4026 49.6084 30.1634 57.9293 30.1634C66.2503 30.1634 73.011 23.4026 73.011 15.0817C73.011 6.76076 66.2503 0 57.9293 0ZM57.9293 28.6899C50.3885 28.6899 44.3212 22.6225 44.3212 15.0817C44.3212 7.54085 50.3885 1.4735 57.9293 1.4735C65.4702 1.4735 71.5375 7.54085 71.5375 15.0817C71.5375 22.6225 65.3835 28.6899 57.9293 28.6899Z" fill="#1D1D1B"/>
<path d="M87.8347 23.922L89.7415 21.1483H88.268L87.0546 23.0552L85.9278 21.1483H84.3676L86.2745 23.922L84.1942 26.9557H85.7544L87.0546 24.8754L88.3547 26.9557H89.9149L87.8347 23.922ZM83.3275 25.8289H80.1205V23.4886H83.0674V22.2751H80.1205V20.2816H83.3275V19.0681H78.8203V26.9557H83.3275V25.8289ZM100.403 22.4485C100.489 22.4485 100.663 22.4485 100.836 22.4485V21.0617C100.749 21.0617 100.749 21.0617 100.663 21.0617C99.9693 21.0617 99.1893 21.4951 98.7559 22.0151V21.1483H97.4557V26.9557H98.8426V23.1419C99.1893 22.7085 99.6226 22.4485 100.403 22.4485ZM106.47 23.922C106.47 22.0151 105.603 20.975 104.043 20.975C102.396 20.975 101.183 22.1885 101.183 23.922C101.183 25.7422 102.483 27.0423 104.303 27.0423C104.91 27.0423 105.517 26.9557 106.037 26.7823V25.5688C105.603 25.7422 104.91 25.8289 104.477 25.8289C103.61 25.8289 102.656 25.3955 102.57 24.3554H106.383C106.383 24.3554 106.47 24.0954 106.47 23.922ZM102.656 23.4019C102.656 22.6218 103.263 22.1018 103.956 22.1018C104.563 22.1018 104.997 22.5352 105.083 23.3153V23.4019H102.656ZM113.404 27.129C114.444 27.129 115.484 26.5223 115.484 25.2221C115.484 24.182 114.704 23.7486 114.011 23.4886C113.491 23.2286 113.057 23.0552 113.057 22.6219C113.057 22.1885 113.491 22.1018 113.924 22.1018C114.184 22.1018 114.791 22.2751 114.964 22.3618L115.051 22.4485V21.235C114.618 21.0617 114.271 21.0617 113.751 21.0617C112.451 21.0617 111.671 21.7551 111.671 22.8819C111.671 23.8353 112.451 24.182 113.144 24.5287C113.664 24.7888 114.098 24.9621 114.098 25.3955C114.098 26.0022 113.318 26.0889 113.144 26.0889C112.884 26.0889 112.277 26.0022 111.931 25.7422L111.757 25.6555V26.869C112.364 27.129 112.971 27.129 113.404 27.129ZM108.897 27.129C109.937 27.129 110.977 26.5223 110.977 25.2221C110.977 24.182 110.197 23.7486 109.504 23.4886C108.984 23.2286 108.55 23.0552 108.55 22.6219C108.55 22.1885 108.984 22.1018 109.417 22.1018C109.677 22.1018 110.284 22.2751 110.457 22.3618L110.631 22.4485V21.235C110.197 21.0617 109.85 21.0617 109.33 21.0617C108.03 21.0617 107.25 21.7551 107.25 22.8819C107.25 23.8353 108.03 24.182 108.724 24.5287C109.244 24.7888 109.677 24.9621 109.677 25.3955C109.677 26.0022 108.897 26.0889 108.724 26.0889C108.464 26.0889 107.944 26.0022 107.51 25.7422L107.337 25.6555V26.869C107.857 27.129 108.464 27.129 108.897 27.129ZM91.9951 29.2959H90.695V21.1483H91.9084V21.7551C92.2551 21.4084 92.8619 21.0617 93.7286 21.0617C95.4622 21.0617 96.2423 22.5352 96.2423 24.0087C96.2423 25.4822 95.5488 27.129 93.7286 27.129C92.9486 27.129 92.3418 26.869 91.9084 26.4356L91.9951 29.2959ZM93.5553 22.1018C92.5152 22.1018 91.9951 23.1419 91.9951 24.0953C91.9951 25.0488 92.4285 26.0889 93.5553 26.0889C93.902 26.0889 94.162 26.0022 94.4221 25.7422C94.8554 25.3088 95.0288 24.6154 94.9421 24.0953C94.9421 23.4019 94.7688 22.8819 94.4221 22.5352C94.2487 22.1885 93.902 22.1018 93.5553 22.1018Z" fill="#1D1D1B"/>
<path d="M0.94506 26.5835V26.0493V19.475H29.9542V26.0493V26.2548V26.7479V26.8711C29.9542 28.1449 29.2557 28.8845 28.023 28.9667C27.7765 28.9667 27.5711 28.9667 27.4067 28.9667H26.9547H26.8725H4.10895H3.94459C3.73915 28.9667 3.41043 28.9667 2.95845 28.9667C1.68467 28.8845 0.986149 28.1449 0.986149 26.8711V26.7479L0.94506 26.5835ZM30.9404 2.17633V1.19019H0.041092V2.17633L0 26.4602V26.6246V27.0355C0 28.5969 1.27377 29.8707 2.87627 29.8707H3.98568H27.3656H28.0641C29.6255 29.8707 30.8993 28.5969 30.8993 27.0355V26.6246V26.2137L30.9404 2.17633Z" fill="#1D1D1B"/>
<path d="M11.7907 22.4741H11.1333C10.3937 22.4741 9.77734 23.0494 9.77734 23.789V25.4326C9.77734 26.1722 10.3937 26.7474 11.1333 26.7474H11.7907C12.5303 26.7474 13.1467 26.1722 13.1467 25.4326V23.789C13.1467 23.0494 12.5303 22.4741 11.7907 22.4741ZM12.4071 25.3915C12.366 25.7202 12.2016 26.09 11.7085 26.09H11.1333C10.6402 26.09 10.4759 25.7202 10.4348 25.3915V23.8301C10.4759 23.5014 10.6402 23.1316 11.1333 23.1316H11.7085C12.2838 23.1316 12.366 23.6657 12.4071 23.8301V25.3915Z" fill="#1D1D1B"/>
<path d="M26.3371 21.3237H25.6797V22.0633H26.3782V21.3237H26.3371Z" fill="#1D1D1B"/>
<path d="M26.3782 22.4741H25.6797V26.7063H26.3782V22.4741Z" fill="#1D1D1B"/>
<path d="M27.4074 21.3237H26.75V22.0633V22.4742V26.7065H27.4896V22.4742V22.0633V21.3237H27.4074Z" fill="#1D1D1B"/>
<path d="M9.54117 22.5154H8.6372C7.89759 22.5154 7.28125 23.0906 7.28125 23.8302V26.7476H8.02086C8.02086 26.7476 8.02086 23.9946 8.02086 23.9535C8.02086 23.7481 8.06195 23.5015 8.18522 23.3783C8.30849 23.255 8.51394 23.1728 8.71938 23.1728H9.62335V22.5154H9.54117Z" fill="#1D1D1B"/>
<path d="M22.0685 22.4741H21.1645C20.4249 22.4741 19.8086 23.0494 19.8086 23.789V26.7063H20.5482C20.5482 26.7063 20.5482 23.9533 20.5482 23.9123C20.5482 23.7068 20.5893 23.4603 20.7126 23.337C20.8358 23.2137 21.0413 23.1316 21.2467 23.1316H22.1507V22.4741H22.0685Z" fill="#1D1D1B"/>
<path d="M6.82608 26.049C6.66172 26.049 6.37409 26.049 6.00429 26.049C4.97705 26.0079 4.40179 25.3916 4.40179 24.3644V24.2822V24.1178V23.7069C4.40179 22.6797 4.97705 22.0633 6.00429 22.0223C6.37409 22.0223 6.66172 22.0223 6.82608 22.0223H6.99043V21.9401V21.3237H6.90825H5.96319C4.68942 21.3237 3.62109 22.351 3.62109 23.6247V24.1589V24.4876C3.62109 25.7614 4.64833 26.7886 5.96319 26.7886H6.94934V26.1312L6.82608 26.049Z" fill="#1D1D1B"/>
<path d="M16.2708 23.1316V22.4741H16.1886H14.5861C13.9287 22.4741 13.3945 22.9672 13.3945 23.6246C13.3945 24.0766 13.6822 24.5697 14.1341 24.734L15.2436 25.186C15.449 25.2682 15.5723 25.3915 15.5723 25.5558C15.5723 25.8435 15.3668 26.0489 15.0792 26.0489H13.7232H13.5178V26.7063H15.2025C15.8599 26.7063 16.3941 26.2133 16.3941 25.5558C16.3941 25.1038 16.1064 24.6108 15.6955 24.4464L14.545 23.9944C14.3807 23.9123 14.2163 23.789 14.2163 23.5835C14.2163 23.4603 14.2574 23.337 14.3807 23.2548C14.4629 23.1726 14.6272 23.0905 14.7916 23.0905H14.9148H16.2708V23.1316Z" fill="#1D1D1B"/>
<path d="M19.4036 23.1316V22.4741H19.3214H17.7189C17.0615 22.4741 16.5273 22.9672 16.5273 23.6246C16.5273 24.0766 16.815 24.5697 17.267 24.734L18.3764 25.186C18.5818 25.2682 18.7051 25.3915 18.7051 25.5558C18.7051 25.8435 18.4996 26.0489 18.212 26.0489H16.8561H16.6506V26.7063H18.3353C18.9927 26.7063 19.5269 26.2133 19.5269 25.5558C19.5269 25.1038 19.2393 24.6108 18.8284 24.4464L17.6778 23.9944C17.5135 23.9123 17.3491 23.789 17.3491 23.5835C17.3491 23.4603 17.3902 23.337 17.5135 23.2548C17.6368 23.1726 17.76 23.0905 17.9244 23.0905H18.0477H19.4036V23.1316Z" fill="#1D1D1B"/>
<path d="M25.3536 25.2273V23.8302C25.3536 23.0906 24.7372 22.5154 23.9976 22.5154H22.5595H22.4773V23.1728H23.9565C24.162 23.1728 24.3674 23.255 24.4907 23.3783C24.614 23.5015 24.655 23.7892 24.655 23.9535V24.1179C24.5318 23.9946 24.2442 23.9124 24.0387 23.9124H23.3813C22.6417 23.9124 22.0664 24.4877 22.0664 25.2273V25.4327C22.0664 26.1313 22.6827 26.7476 23.4224 26.7476H24.0798C24.8194 26.7476 25.3947 26.1723 25.3947 25.4738L25.3536 25.2273ZM24.614 25.3916C24.614 25.7614 24.3263 26.0491 23.9154 26.0491H23.3402C22.9704 26.0491 22.6417 25.7614 22.6417 25.3916V25.2273C22.6417 24.8575 22.9293 24.5699 23.3402 24.5699H23.9154C24.2852 24.5699 24.614 24.8575 24.614 25.2273V25.3916Z" fill="#1D1D1B"/>
<path d="M3.53516 14.422V16.2299H3.90496C3.90496 16.2299 6.4936 16.3121 8.75352 15.6958C9.57531 15.4903 10.2327 15.3259 10.6436 15.1616C10.6436 15.1616 11.4243 14.8329 11.712 14.7096C12.9857 14.0933 13.8897 13.518 14.6293 12.8195C15.2046 12.2853 15.6566 11.7512 16.0264 11.3403C16.0264 11.3403 17.0536 9.94322 17.5056 9.57342L17.5467 9.53233C18.9848 8.21746 20.7106 7.60112 20.7106 7.60112C22.6007 6.82042 24.5319 6.53279 26.6685 6.53279C26.6685 6.53279 27.3671 6.53279 27.5314 6.53279V4.72485H26.3809C23.4225 4.72485 21.1215 5.54664 21.1215 5.54664C20.5051 5.75209 20.1764 5.87536 20.1764 5.87536C18.0808 6.73824 16.8482 7.76548 15.9853 8.62836C15.6566 8.95707 15.41 9.20361 14.7937 10.0254C14.1362 10.8883 13.6021 11.3403 13.6021 11.3403C12.8625 12.0388 11.8763 12.7784 9.82185 13.518C8.01391 14.1754 5.95943 14.3809 4.27477 14.3809L3.53516 14.422Z" fill="white"/>
<path d="M15.2868 8.75048C15.2457 8.70939 15.2046 8.62721 15.1224 8.58612C14.2595 7.72324 13.0268 6.73709 10.9313 5.83312C10.9313 5.83312 10.6025 5.66877 9.98621 5.50441C9.98621 5.50441 7.6852 4.68262 4.35695 4.68262H3.53516V6.53164H4.02823C6.28815 6.53164 8.42481 6.81927 10.356 7.59997C10.356 7.59997 11.7941 8.13413 13.1501 9.24355H14.8348L15.2868 8.75048Z" fill="white"/>
<path d="M26.1378 14.421H27.4527V16.2289H26.3844C26.3844 16.2289 24.371 16.2289 22.2343 15.6947C21.3714 15.4893 20.7551 15.2838 20.3853 15.1606C20.3853 15.1606 19.6046 14.8319 19.317 14.7086C17.5912 13.8868 16.6462 13.1472 15.7422 12.161L16.1531 11.668H17.8378C18.5363 12.2843 19.5224 12.9007 21.2893 13.517C23.0972 14.1744 24.9462 14.3799 26.1378 14.421Z" fill="white"/>
<path d="M3.53516 9.53101V11.3389H12.9857C12.9857 11.3389 13.9719 10.4761 14.5882 9.53101H3.53516Z" fill="white"/>
<path d="M16.3984 11.3389C16.3984 11.3389 17.3846 10.0241 18.0009 9.53101H27.4926V11.3389H16.3984Z" fill="white"/>
</svg>
