<svg width="31" height="29" viewBox="0 0 31 29" fill="none" xmlns="http://www.w3.org/2000/svg">
<path d="M0.94506 25.5835V25.0493V18.475H29.9542V25.0493V25.2548V25.7479V25.8711C29.9542 27.1449 29.2557 27.8845 28.023 27.9667C27.7765 27.9667 27.5711 27.9667 27.4067 27.9667H26.9547H26.8725H4.10895H3.94459C3.73915 27.9667 3.41043 27.9667 2.95845 27.9667C1.68467 27.8845 0.986149 27.1449 0.986149 25.8711V25.7479L0.94506 25.5835ZM30.9404 1.17633V0.190186H0.041092V1.17633L0 25.4602V25.6246V26.0355C0 27.5969 1.27377 28.8707 2.87627 28.8707H3.98568H27.3656H28.0641C29.6255 28.8707 30.8993 27.5969 30.8993 26.0355V25.6246V25.2137L30.9404 1.17633Z" fill="#1D1D1B"/>
<path d="M11.7907 21.4741H11.1333C10.3937 21.4741 9.77734 22.0494 9.77734 22.789V24.4326C9.77734 25.1722 10.3937 25.7474 11.1333 25.7474H11.7907C12.5303 25.7474 13.1467 25.1722 13.1467 24.4326V22.789C13.1467 22.0494 12.5303 21.4741 11.7907 21.4741ZM12.4071 24.3915C12.366 24.7202 12.2016 25.09 11.7085 25.09H11.1333C10.6402 25.09 10.4759 24.7202 10.4348 24.3915V22.8301C10.4759 22.5014 10.6402 22.1316 11.1333 22.1316H11.7085C12.2838 22.1316 12.366 22.6657 12.4071 22.8301V24.3915Z" fill="#1D1D1B"/>
<path d="M26.3371 20.3237H25.6797V21.0633H26.3782V20.3237H26.3371Z" fill="#1D1D1B"/>
<path d="M26.3782 21.4741H25.6797V25.7063H26.3782V21.4741Z" fill="#1D1D1B"/>
<path d="M27.4074 20.3237H26.75V21.0633V21.4742V25.7065H27.4896V21.4742V21.0633V20.3237H27.4074Z" fill="#1D1D1B"/>
<path d="M9.54117 21.5154H8.6372C7.89759 21.5154 7.28125 22.0906 7.28125 22.8302V25.7476H8.02086C8.02086 25.7476 8.02086 22.9946 8.02086 22.9535C8.02086 22.7481 8.06195 22.5015 8.18522 22.3783C8.30849 22.255 8.51394 22.1728 8.71938 22.1728H9.62335V21.5154H9.54117Z" fill="#1D1D1B"/>
<path d="M22.0685 21.4741H21.1645C20.4249 21.4741 19.8086 22.0494 19.8086 22.789V25.7063H20.5482C20.5482 25.7063 20.5482 22.9533 20.5482 22.9123C20.5482 22.7068 20.5893 22.4603 20.7126 22.337C20.8358 22.2137 21.0413 22.1316 21.2467 22.1316H22.1507V21.4741H22.0685Z" fill="#1D1D1B"/>
<path d="M6.82608 25.049C6.66172 25.049 6.37409 25.049 6.00429 25.049C4.97705 25.0079 4.40179 24.3916 4.40179 23.3644V23.2822V23.1178V22.7069C4.40179 21.6797 4.97705 21.0633 6.00429 21.0223C6.37409 21.0223 6.66172 21.0223 6.82608 21.0223H6.99043V20.9401V20.3237H6.90825H5.96319C4.68942 20.3237 3.62109 21.351 3.62109 22.6247V23.1589V23.4876C3.62109 24.7614 4.64833 25.7886 5.96319 25.7886H6.94934V25.1312L6.82608 25.049Z" fill="#1D1D1B"/>
<path d="M16.2708 22.1316V21.4741H16.1886H14.5861C13.9287 21.4741 13.3945 21.9672 13.3945 22.6246C13.3945 23.0766 13.6822 23.5697 14.1341 23.734L15.2436 24.186C15.449 24.2682 15.5723 24.3915 15.5723 24.5558C15.5723 24.8435 15.3668 25.0489 15.0792 25.0489H13.7232H13.5178V25.7063H15.2025C15.8599 25.7063 16.3941 25.2133 16.3941 24.5558C16.3941 24.1038 16.1064 23.6108 15.6955 23.4464L14.545 22.9944C14.3807 22.9123 14.2163 22.789 14.2163 22.5835C14.2163 22.4603 14.2574 22.337 14.3807 22.2548C14.4629 22.1726 14.6272 22.0905 14.7916 22.0905H14.9148H16.2708V22.1316Z" fill="#1D1D1B"/>
<path d="M19.4036 22.1316V21.4741H19.3214H17.7189C17.0615 21.4741 16.5273 21.9672 16.5273 22.6246C16.5273 23.0766 16.815 23.5697 17.267 23.734L18.3764 24.186C18.5818 24.2682 18.7051 24.3915 18.7051 24.5558C18.7051 24.8435 18.4996 25.0489 18.212 25.0489H16.8561H16.6506V25.7063H18.3353C18.9927 25.7063 19.5269 25.2133 19.5269 24.5558C19.5269 24.1038 19.2393 23.6108 18.8284 23.4464L17.6778 22.9944C17.5135 22.9123 17.3491 22.789 17.3491 22.5835C17.3491 22.4603 17.3902 22.337 17.5135 22.2548C17.6368 22.1726 17.76 22.0905 17.9244 22.0905H18.0477H19.4036V22.1316Z" fill="#1D1D1B"/>
<path d="M25.3536 24.2273V22.8302C25.3536 22.0906 24.7372 21.5154 23.9976 21.5154H22.5595H22.4773V22.1728H23.9565C24.162 22.1728 24.3674 22.255 24.4907 22.3783C24.614 22.5015 24.655 22.7892 24.655 22.9535V23.1179C24.5318 22.9946 24.2442 22.9124 24.0387 22.9124H23.3813C22.6417 22.9124 22.0664 23.4877 22.0664 24.2273V24.4327C22.0664 25.1313 22.6827 25.7476 23.4224 25.7476H24.0798C24.8194 25.7476 25.3947 25.1723 25.3947 24.4738L25.3536 24.2273ZM24.614 24.3916C24.614 24.7614 24.3263 25.0491 23.9154 25.0491H23.3402C22.9704 25.0491 22.6417 24.7614 22.6417 24.3916V24.2273C22.6417 23.8575 22.9293 23.5699 23.3402 23.5699H23.9154C24.2852 23.5699 24.614 23.8575 24.614 24.2273V24.3916Z" fill="#1D1D1B"/>
<path d="M3.53516 13.422V15.2299H3.90496C3.90496 15.2299 6.4936 15.3121 8.75352 14.6958C9.57531 14.4903 10.2327 14.3259 10.6436 14.1616C10.6436 14.1616 11.4243 13.8329 11.712 13.7096C12.9857 13.0933 13.8897 12.518 14.6293 11.8195C15.2046 11.2853 15.6566 10.7512 16.0264 10.3403C16.0264 10.3403 17.0536 8.94322 17.5056 8.57342L17.5467 8.53233C18.9848 7.21746 20.7106 6.60112 20.7106 6.60112C22.6007 5.82042 24.5319 5.53279 26.6685 5.53279C26.6685 5.53279 27.3671 5.53279 27.5314 5.53279V3.72485H26.3809C23.4225 3.72485 21.1215 4.54664 21.1215 4.54664C20.5051 4.75209 20.1764 4.87536 20.1764 4.87536C18.0808 5.73824 16.8482 6.76548 15.9853 7.62836C15.6566 7.95707 15.41 8.20361 14.7937 9.0254C14.1362 9.88828 13.6021 10.3403 13.6021 10.3403C12.8625 11.0388 11.8763 11.7784 9.82185 12.518C8.01391 13.1754 5.95943 13.3809 4.27477 13.3809L3.53516 13.422Z" fill="white"/>
<path d="M15.2868 7.75048C15.2457 7.70939 15.2046 7.62721 15.1224 7.58612C14.2595 6.72324 13.0268 5.73709 10.9313 4.83312C10.9313 4.83312 10.6025 4.66877 9.98621 4.50441C9.98621 4.50441 7.6852 3.68262 4.35695 3.68262H3.53516V5.53164H4.02823C6.28815 5.53164 8.42481 5.81927 10.356 6.59997C10.356 6.59997 11.7941 7.13413 13.1501 8.24355H14.8348L15.2868 7.75048Z" fill="white"/>
<path d="M26.1378 13.421H27.4527V15.2289H26.3844C26.3844 15.2289 24.371 15.2289 22.2343 14.6947C21.3714 14.4893 20.7551 14.2838 20.3853 14.1606C20.3853 14.1606 19.6046 13.8319 19.317 13.7086C17.5912 12.8868 16.6462 12.1472 15.7422 11.161L16.1531 10.668H17.8378C18.5363 11.2843 19.5224 11.9007 21.2893 12.517C23.0972 13.1744 24.9462 13.3799 26.1378 13.421Z" fill="white"/>
<path d="M3.53516 8.53101V10.3389H12.9857C12.9857 10.3389 13.9719 9.47606 14.5882 8.53101H3.53516Z" fill="white"/>
<path d="M16.3984 10.3389C16.3984 10.3389 17.3846 9.02408 18.0009 8.53101H27.4926V10.3389H16.3984Z" fill="white"/>
</svg>
