<svg width="22" height="36" viewBox="0 0 22 36" fill="none" xmlns="http://www.w3.org/2000/svg">
<path d="M7.218 13.0533C6.36572 13.6813 5.51344 14.3093 4.66116 15.027C4.43687 15.2064 4.34716 15.5653 4.3023 15.8344C3.9883 17.4493 3.71916 19.0641 3.45002 20.7238C3.27059 21.7555 2.73231 22.1592 1.88003 22.0247C1.16232 21.8901 0.803462 21.2173 0.938033 20.2753C1.25203 18.3016 1.52117 16.283 1.88003 14.3093C1.96974 13.8159 2.23888 13.2776 2.59774 12.9636C3.9883 11.7076 5.46858 10.5413 6.904 9.28531C8.24971 8.11903 9.8197 8.11903 11.3897 8.52274C11.9728 8.70217 12.5111 9.41988 12.87 10.0479C13.7223 11.7076 14.44 13.4121 15.2474 15.0719C15.4268 15.4756 15.7857 15.8344 16.1894 16.0138C17.5351 16.7316 18.9705 17.3596 20.3611 18.0773C20.7199 18.2567 21.1685 18.5258 21.3479 18.8847C21.5274 19.1987 21.5274 19.7818 21.3479 20.0958C21.2134 20.365 20.6751 20.5444 20.3162 20.5444C19.9574 20.5444 19.5088 20.4098 19.1499 20.2304C18.4771 19.9613 17.8491 19.6473 17.2211 19.3781C15.4268 18.5707 13.4531 17.9427 12.6457 15.8344C12.556 15.8793 12.4663 15.8793 12.3765 15.9241C12.0177 17.4493 11.6588 19.0193 11.3897 20.5444C11.3448 20.7687 11.614 21.0827 11.7486 21.3518C13.9465 24.9404 16.1445 28.5289 18.3425 32.1175C18.6565 32.6109 18.9257 33.194 19.0602 33.7772C19.2397 34.4949 19.0602 35.1678 18.2977 35.5715C17.5351 35.9303 16.8174 35.9303 16.2791 35.3023C15.696 34.6743 15.1128 33.9566 14.6643 33.2389C12.1523 29.3812 9.68513 25.5235 7.17315 21.6658C6.36572 20.4098 6.09658 19.1538 6.45543 17.7184C6.81429 16.2381 7.08343 14.713 7.39743 13.1879C7.35257 13.1879 7.30772 13.0981 7.218 13.0533Z" fill="black"/>
<path d="M5.73628 22.7873C6.5437 23.9087 7.30627 24.9404 8.02398 25.9273C8.15855 26.1516 8.24826 26.5104 8.15855 26.7347C7.88941 27.587 7.66512 28.529 7.12684 29.2467C5.73628 31.2204 4.256 33.1492 2.73086 35.0332C2.01315 35.9304 1.20573 35.9752 0.532874 35.4818C-0.0951225 34.9884 -0.184836 34.1361 0.353447 33.1941C0.936587 32.2521 1.51973 31.3101 2.23744 30.4578C3.85229 28.529 4.79428 26.2861 5.33256 23.8639C5.37742 23.6396 5.46714 23.4153 5.51199 23.191C5.60171 23.1013 5.64656 23.0116 5.73628 22.7873Z" fill="black"/>
<path d="M12.6435 6.81825C10.7147 6.81825 9.23438 5.38283 9.23438 3.45398C9.23438 1.52514 10.7147 0 12.6884 0C14.6172 0 16.1423 1.52514 16.0975 3.49884C16.0526 5.38283 14.5723 6.81825 12.6435 6.81825Z" fill="black"/>
</svg>
