<svg width="48" height="48" viewBox="0 0 48 48" fill="none" xmlns="http://www.w3.org/2000/svg">
<path d="M24 48C37.2435 48 48 37.2435 48 24C48 10.7565 37.2435 0 24 0C10.7565 0 0 10.7565 0 24C0 37.2435 10.7565 48 24 48Z" fill="#1D1D1B"/>
<path d="M38 20.9225H35.6211C34.1745 15.6421 29.4489 12 23.9679 12C18.4868 12 13.7773 15.6421 12.3146 20.9225H10V27.2207H12.2181C13.713 32.4215 18.4064 36 23.8232 36C29.24 36 33.9334 32.4215 35.4282 27.2207H38V20.9225ZM24.1125 13.2406C26.6039 13.2406 29.0471 14.0835 30.9759 15.5944C32.7118 16.9622 33.9816 18.839 34.6085 20.9225H31.0241C29.7704 18.1551 27.0861 16.3897 24.1125 16.3897C20.9943 16.3897 18.2457 18.2028 17.1848 20.9225H13.6165C14.9828 16.4374 19.2744 13.2406 24.1125 13.2406ZM29.7382 20.9225H18.5029C19.628 18.9185 21.7819 17.6302 24.1125 17.6302C26.5235 17.6302 28.6452 18.9026 29.7382 20.9225ZM23.9679 34.7913C21.4765 34.7913 19.0333 33.9483 17.1045 32.4374C15.4007 31.1014 14.147 29.2883 13.5201 27.2525H17.1206C18.3904 29.9404 21.0425 31.6421 23.9679 31.6421C27.0379 31.6421 29.7382 29.8926 30.8473 27.2525H34.4156C33.0011 31.6581 28.7577 34.7913 23.9679 34.7913ZM18.4225 27.2366H29.5132C28.372 29.161 26.2503 30.4016 23.9839 30.4016C21.6051 30.4016 19.5155 29.1769 18.4225 27.2366ZM36.8266 26.0119H11.1734V22.0199H36.8266V26.0119Z" fill="white"/>
</svg>
