<svg width="42" height="36" viewBox="0 0 42 36" fill="none" xmlns="http://www.w3.org/2000/svg">
	<path d="M8.47502 33.8913C12.2913 33.8913 15.3881 30.7946 15.3881 26.9736C15.3881 23.1619 12.2918 20.0656 8.47502 20.0656C4.66835 20.0656 1.57162 23.1624 1.57162 26.9736C1.57162 30.795 4.66835 33.8913 8.47502 33.8913ZM0 26.9736C0 22.2915 3.80207 18.5032 8.47502 18.5032C13.1622 18.5032 16.9597 22.2915 16.9597 26.9736C16.9597 31.6609 13.1622 35.4533 8.47502 35.4533C3.80207 35.4537 0 31.6609 0 26.9736Z" fill="currentColor" />
	<path d="M33.4335 33.9714C37.2406 33.9714 40.3373 30.8797 40.3373 27.0587C40.3373 23.2424 37.2406 20.1507 33.4335 20.1507C29.6176 20.1507 26.5208 23.2424 26.5208 27.0587C26.5208 30.8797 29.6176 33.9714 33.4335 33.9714ZM24.9492 27.0583C24.9492 22.3711 28.7513 18.5829 33.4335 18.5829C38.1064 18.5829 41.9089 22.3711 41.9089 27.0583C41.9089 31.7455 38.1068 35.538 33.4335 35.538C28.7513 35.5384 24.9492 31.7455 24.9492 27.0583Z" fill="currentColor" />
	<path d="M24.9753 6.37156C26.7356 6.37156 28.1655 4.9504 28.1655 3.1906C28.1655 1.43039 26.7356 0 24.9753 0C23.2155 0 21.7852 1.4308 21.7852 3.1906C21.7852 4.9504 23.2155 6.37156 24.9753 6.37156Z" fill="currentColor" />
	<path d="M25.1069 14.1081C24.6455 14.1173 24.1472 13.8868 23.7796 13.308L21.7097 10.0705L17.437 14.3009L21.3991 16.3859C23.0273 17.1671 22.7826 18.5975 22.7826 18.5975V27.5666C22.7826 28.5829 21.9637 29.4111 20.9474 29.4111C19.931 29.4111 19.1121 28.5825 19.1121 27.5666V20.3858L12.2414 16.5695C11.4225 16.1131 10.8672 15.2376 10.8672 14.2401C10.8672 13.5528 11.1212 12.922 11.5541 12.4518L18.2928 5.69888C19.1306 4.75297 20.2973 4.90384 20.2973 4.90384C21.7093 4.90384 22.4528 6.13683 22.4528 6.13683L25.9539 11.6237L31.2719 11.6145C33.1825 11.6145 33.1825 14.1085 31.2719 14.1085H25.1069V14.1081Z" fill="currentColor" />
</svg>
