<svg width="22" height="37" viewBox="0 0 22 37" fill="none" xmlns="http://www.w3.org/2000/svg">
	<path d="M7.61253 13.3413C6.76025 13.9693 5.90797 14.5973 5.05569 15.315C4.8314 15.4944 4.74169 15.8533 4.69683 16.1224C4.38283 17.7373 4.11369 19.3521 3.84455 21.0119C3.66512 22.0436 3.12684 22.4473 2.27456 22.3127C1.55685 22.1781 1.19799 21.5053 1.33256 20.5633C1.64656 18.5896 1.9157 16.571 2.27456 14.5973C2.36427 14.1039 2.63342 13.5656 2.99227 13.2516C4.38284 11.9956 5.86311 10.8293 7.29853 9.57334C8.64424 8.40706 10.2142 8.40706 11.7842 8.81077C12.3674 8.9902 12.9057 9.70791 13.2645 10.3359C14.1168 11.9956 14.8345 13.7002 15.6419 15.3599C15.8214 15.7636 16.1802 16.1224 16.5839 16.3019C17.9296 17.0196 19.365 17.6476 20.7556 18.3653C21.1145 18.5447 21.563 18.8139 21.7425 19.1727C21.9219 19.4867 21.9219 20.0699 21.7425 20.3839C21.6079 20.653 21.0696 20.8324 20.7108 20.8324C20.3519 20.8324 19.9033 20.6979 19.5445 20.5184C18.8716 20.2493 18.2436 19.9353 17.6156 19.6661C15.8214 18.8587 13.8476 18.2307 13.0402 16.1224C12.9505 16.1673 12.8608 16.1673 12.7711 16.2122C12.4122 17.7373 12.0534 19.3073 11.7842 20.8324C11.7394 21.0567 12.0085 21.3707 12.1431 21.6398C14.3411 25.2284 16.5391 28.817 18.7371 32.4055C19.051 32.8989 19.3202 33.4821 19.4548 34.0652C19.6342 34.7829 19.4548 35.4558 18.6922 35.8595C17.9296 36.2183 17.2119 36.2183 16.6736 35.5904C16.0905 34.9624 15.5074 34.2446 15.0588 33.5269C12.5468 29.6692 10.0797 25.8115 7.56768 21.9538C6.76025 20.6979 6.49111 19.4419 6.84997 18.0064C7.20882 16.5262 7.47796 15.001 7.79196 13.4759C7.7471 13.4759 7.70225 13.3862 7.61253 13.3413Z" fill="currentColor" />
	<path d="M6.13081 23.0753C6.93823 24.1967 7.7008 25.2284 8.41851 26.2153C8.55308 26.4396 8.6428 26.7984 8.55308 27.0227C8.28394 27.875 8.05966 28.817 7.52137 29.5347C6.13081 31.5084 4.65053 33.4373 3.12539 35.3213C2.40768 36.2184 1.60026 36.2633 0.927406 35.7698C0.299409 35.2764 0.209695 34.4241 0.747978 33.4821C1.33112 32.5401 1.91426 31.5981 2.63197 30.7458C4.24682 28.817 5.18881 26.5742 5.7271 24.1519C5.77195 23.9276 5.86167 23.7033 5.90652 23.479C5.99624 23.3893 6.04109 23.2996 6.13081 23.0753Z" fill="currentColor" />
	<path d="M13.038 7.10626C11.1092 7.10626 9.62891 5.67084 9.62891 3.74199C9.62891 1.81314 11.1092 0.28801 13.0829 0.28801C15.0117 0.28801 16.5369 1.81314 16.492 3.78685C16.4472 5.67084 14.9669 7.10626 13.038 7.10626Z" fill="currentColor" />
</svg>
