<svg width="40" height="33" viewBox="0 0 40 33" fill="none" xmlns="http://www.w3.org/2000/svg">
<path d="M39.1392 13.4543H35.7254C34.4453 5.85871 27.8738 0.0979919 19.9368 0.0979919C11.9998 0.0979919 5.4283 5.85871 4.14813 13.4543H0.734375V18.7883H4.14813C5.4283 26.3413 11.9998 32.102 19.9368 32.102C27.8738 32.102 34.4453 26.3413 35.7254 18.7457H39.1392V13.4543ZM19.9368 5.43199C24.8867 5.43199 29.0686 8.84575 30.2634 13.4543H9.61015C10.805 8.84575 14.9868 5.43199 19.9368 5.43199ZM19.9368 26.768C14.9868 26.768 10.805 23.3542 9.61015 18.7457H30.2634C29.0686 23.3542 24.8867 26.768 19.9368 26.768Z" fill="currentColor"/>
</svg>
