<svg width="25" height="39" viewBox="0 0 25 39" fill="none" xmlns="http://www.w3.org/2000/svg">
	<path d="M4.52746 32.8291H20.118C22.3621 32.8291 24.1337 31.1755 24.1337 29.1677V7.6126C24.1337 5.60473 22.303 3.95119 20.118 3.95119H4.52746C2.28337 3.95119 0.511719 5.60473 0.511719 7.6126V29.1086C0.511719 31.1755 2.28337 32.8291 4.52746 32.8291ZM5.41328 30.2307C4.29124 30.2307 3.40541 29.3448 3.40541 28.2228C3.40541 27.1007 4.29124 26.2149 5.41328 26.2149C6.53533 26.2149 7.42115 27.1007 7.42115 28.2228C7.42115 29.3448 6.53533 30.2307 5.41328 30.2307ZM19.2322 30.2307C18.1101 30.2307 17.2243 29.3448 17.2243 28.2228C17.2243 27.1007 18.1101 26.2149 19.2322 26.2149C20.3542 26.2149 21.24 27.1007 21.24 28.2228C21.2991 29.3448 20.3542 30.2307 19.2322 30.2307ZM8.83847 5.78189C8.83847 5.48662 9.13375 5.19134 9.48808 5.19134H15.0983C15.4526 5.19134 15.7479 5.42756 15.7479 5.78189V7.49449C15.7479 7.78976 15.4526 8.08504 15.0983 8.08504H9.48808C9.13375 8.08504 8.83847 7.84882 8.83847 7.49449V5.78189ZM2.22431 12.337C2.22431 10.7425 3.58258 9.4433 5.29517 9.4433H19.3503C21.0629 9.4433 22.4211 10.7425 22.4211 12.337V16.648C22.4211 18.2425 21.0629 19.5417 19.3503 19.5417H5.29517C3.58258 19.5417 2.22431 18.2425 2.22431 16.648V12.337Z" fill="currentColor" />
	<path d="M14.3314 3.36064C15.1141 3.36064 15.7487 2.72608 15.7487 1.94332C15.7487 1.16056 15.1141 0.526001 14.3314 0.526001C13.5486 0.526001 12.9141 1.16056 12.9141 1.94332C12.9141 2.72608 13.5486 3.36064 14.3314 3.36064Z" fill="currentColor" />
	<path d="M10.3158 3.36064C11.0985 3.36064 11.7331 2.72608 11.7331 1.94332C11.7331 1.16056 11.0985 0.526001 10.3158 0.526001C9.53299 0.526001 8.89844 1.16056 8.89844 1.94332C8.89844 2.72608 9.53299 3.36064 10.3158 3.36064Z" fill="currentColor" />
	<path d="M20.2379 33.774H4.41116L1.28125 38.9118H3.93872L5.71037 36.3133H18.9387L20.7103 38.9118H23.3678L20.2379 33.774Z" fill="currentColor" />
</svg>
