<svg width="30" height="30" viewBox="0 0 30 30" fill="none" xmlns="http://www.w3.org/2000/svg">
	<path d="M28.2937 0.688693L26.8936 1.23653C25.6153 1.7235 24.4588 2.45394 23.5153 3.42788L20.0152 6.89751L3.5497 3.64092C3.06273 3.54962 2.54533 3.7018 2.1801 4.06702L1.35835 4.88877C1.23661 5.01052 1.26704 5.254 1.41922 5.34531L14.8717 12.1628L8.48023 19.2543L2.05836 17.5499C1.84531 17.489 1.60183 17.5499 1.44965 17.7021L0.780076 18.3716C0.658335 18.4934 0.68877 18.7369 0.871382 18.8586L6.6541 22.2674L6.47149 22.9674C6.34975 23.4848 6.80628 23.9413 7.32368 23.8196L8.0237 23.637L11.4325 29.4197C11.5238 29.6023 11.7672 29.6327 11.9194 29.4806L12.589 28.811C12.7412 28.6588 12.802 28.4153 12.7412 28.2023L11.0672 21.75L18.1587 15.3585L24.9762 28.811C25.0675 28.9936 25.2806 29.024 25.4327 28.8719L26.2545 28.0501C26.6197 27.6849 26.7719 27.1675 26.6806 26.6805L23.3631 10.2454L26.8632 6.74533C27.8067 5.80184 28.5676 4.64529 29.0545 3.36701L29.6024 1.96698C29.8763 1.17566 29.085 0.384339 28.2937 0.688693Z" fill="currentColor" />
</svg>
