<?xml version="1.0" encoding="utf-8"?>
<!-- Generator: Adobe Illustrator 24.0.2, SVG Export Plug-In . SVG Version: 6.00 Build 0)  -->
<svg version="1.1" id="Layer_1" xmlns="http://www.w3.org/2000/svg" xmlns:xlink="http://www.w3.org/1999/xlink" x="0px" y="0px"
	 viewBox="0 0 222.4 222.4" style="enable-background:new 0 0 222.4 222.4;" xml:space="preserve">
<style type="text/css">
	.st0{fill:#1C1C1B;}
</style>
<g>
	<path class="st0" d="M77.3,184.3c-8.3,1-16.1,2.6-16.1,9.9c0,6,5.1,8.5,9.7,8.5c4.7,0,8.9-1.7,11.8-4.6c2.4-2.5,3.6-5.8,3.6-9.4
		c0,0,0-4.9,0-6.2c-1,0.8-3.3,1.2-4.6,1.4L77.3,184.3z"/>
	<path class="st0" d="M222.4,0H0v222.4h222.4V0z M32.4,208.2c-11.4,0-19.1-5.8-19.1-16.6v-0.4h6.3v0.3c0,7.1,5.1,11.2,12.9,11.2
		c4.2,0,12.1-1.8,12.1-8.5c0-12.9-29.7-3.7-29.7-22.2c0-9.3,8.7-13.5,17.3-13.5c10.1,0,17,5.8,17,15.3v0.4H43v-0.4
		c0-6.1-4.3-9.7-11.2-9.7c-4.9,0-10.5,2.1-10.5,7.6c0,12.1,29.7,3.6,29.7,22.2C50.8,203.8,41.6,208.2,32.4,208.2z M87.4,206.8
		c-0.7-2.5-0.7-7.5-0.7-7.5c-2.4,5.1-7.8,8.9-16.2,8.9c-9.7,0-15.5-5.3-15.5-13.9c0-12.5,11.2-13.7,22.2-15l2.4-0.3
		c4.4-0.6,6.8-1.1,6.8-6c0-6.2-3.6-9-11.4-9c-6.5,0-11.8,2.8-11.8,9.9v0.4h-6.3v-0.4c0-11,8.7-15.4,18.7-15.4c10.8,0,17,4.3,17,14.4
		v25.5c0,2.2,0.4,6.9,0.9,8.3h-6.1V206.8z M117.8,206.8H111l-16.6-46.9h7.2l12.9,39.7l12.7-39.7h6.1h0.6L117.8,206.8z M143.5,206.8
		H137v-46.9h6.1h0.4V206.8z M144.5,147.6C144.5,147.6,144.5,147.5,144.5,147.6c-0.1,2.4-2.1,4.2-4.4,4.2c-2.3,0-4.4-1.9-4.4-4.4
		c0-2.3,2-4.2,4.4-4.2C142.5,143.2,144.5,145.1,144.5,147.6c0-0.1,0-0.1,0-0.2V147.6z M156.4,206.8h-6.5v-64.7h6.1h0.4V206.8z
		 M169.1,206.8h-6.5v-64.7h6.1h0.4V206.8z M192,208.2c-11.5,0-19.2-5.8-19.2-16.6v-0.4h6.2v0.3c0,7.1,5.3,11.2,12.9,11.2
		c4.2,0,12.2-1.8,12.2-8.5c0-12.9-29.8-3.7-29.8-22.2c0-9.3,8.7-13.5,17.3-13.5c10.3,0,17.2,5.8,17.2,15.3v0.4h-6.2v-0.4
		c0-6.1-4.3-9.7-11.3-9.7c-5,0-10.7,2.1-10.7,7.6c0,12.1,29.8,3.6,29.8,22.2C210.3,203.8,201.1,208.2,192,208.2z"/>
</g>
</svg>
