<?xml version="1.0" encoding="utf-8"?>
<!-- Generator: Adobe Illustrator 25.4.0, SVG Export Plug-In . SVG Version: 6.00 Build 0)  -->
<svg version="1.1" id="Layer_1" xmlns="http://www.w3.org/2000/svg" xmlns:xlink="http://www.w3.org/1999/xlink" x="0px" y="0px"
	 viewBox="0 0 1920 1080" style="enable-background:new 0 0 1920 1080;" xml:space="preserve">
<g>
	<path d="M385.7,466.8c34.5,0,72-11.7,72-55.1c0-38-30.4-44.4-65.9-50c-24.2-3.8-51.3-10.2-51.3-30.4c0-20.9,21.7-30.1,39.1-30.1
		c29.4,0,47.2,15.3,47.7,42.1l24-4.3c-3.8-42.4-34.2-56.9-71.2-56.9c-29.1,0-63.3,13.8-63.3,50.3c0,34.2,30.6,43.9,58.5,50.5
		c26.8,6.4,58.5,5.9,58.5,30.6c0,26-22.5,34-48.8,34c-27.6,0-48.5-15.8-48.5-44.4l-24.5,2.6C311.9,447.1,346.4,466.8,385.7,466.8"/>
	<path d="M634,371.2v-66.6h37.3c21.7,0,48,0.5,48,34.2c0,30.9-26.3,32.4-48.2,32.4H634z M611,463.4h23v-72.5h37
		c32.2,0,70.7-5.1,70.7-52.1c0-48.5-38.6-54.1-70.5-54.1H611V463.4z"/>
	<path d="M937.6,389.6l19.9-53.9c4.1-11.2,6.9-19.4,10-28.8h0.3c2.6,7.7,6.6,19.4,10.2,28.8l20.2,53.9H937.6z M1025.7,463.4h24.2
		l-69.7-178.7h-24.5l-69.9,178.7h24.5L930,410h75.8L1025.7,463.4z"/>
	<path d="M1262.3,466.8c37.5,0,64.6-18.1,78.9-50.8l-26.3-6.9c-7.1,20.4-23.5,37.8-52.6,37.8c-20.4,0-36.8-6.9-46-19.9
		c-8.7-12.5-12.8-29.4-12.8-52.6c0-23,4.1-40.1,12.8-52.3c9.7-13.5,26-20.2,46.5-20.2c28.8,0,46.2,19.4,51.6,40.8l25.3-4.8
		c-10-37.3-40.8-55.9-77.4-55.9c-54.9,0-84.8,38.3-84.8,92.4C1177.6,433.8,1208.2,466.8,1262.3,466.8"/>
	<polygon points="1493.2,463.4 1608.6,463.4 1608.6,442.7 1516.2,442.7 1516.2,383.5 1599.2,383.5 1599.2,362.8 1516.2,362.8 
		1516.2,305.4 1608.6,305.4 1608.6,284.7 1493.2,284.7 	"/>
	<polygon points="311.7,795.8 334.9,795.8 334.9,715.9 424.5,715.9 424.5,795.8 447.7,795.8 447.7,617.1 424.5,617.1 424.5,695.2 
		334.9,695.2 334.9,617.1 311.7,617.1 	"/>
	<path d="M676.7,778.6c-20.2,0-36-7.2-46-19.9c-6.9-8.9-12.8-27.8-12.8-52.6c0-23,4.8-41.9,13.5-53.4c7.7-10,23-19.1,46.2-19.1
		c20.2,0,34.5,6.9,43.7,20.2c8.9,12.8,13.8,29.1,13.8,52.3c0,23-4.8,39.8-13.8,52.6C712.2,771.9,697.9,778.6,676.7,778.6
		 M676.7,798.5c54.1,0,84.5-37.8,84.5-92.4c0-53.9-30.4-92.4-84.5-92.4c-54.9,0-84.8,38.3-84.8,92.4
		C592,765.6,622.6,798.5,676.7,798.5"/>
	<path d="M968,798.8c45.4,0,69.9-22,69.9-62V617.1h-23.2v119.7c0,28.3-22,41.6-46.7,41.6c-24.8,0-46.5-13.3-46.5-41.6V617.1h-23.2
		v119.7C898.3,776.9,922.6,798.8,968,798.8"/>
	<path d="M1260.6,798.5c34.5,0,72-11.7,72-55.1c0-38-30.4-44.4-65.9-50c-24.2-3.8-51.3-10.2-51.3-30.4c0-20.9,21.7-30.1,39.1-30.1
		c29.4,0,47.2,15.3,47.7,42.1l24-4.3c-3.8-42.4-34.2-56.9-71.2-56.9c-29.1,0-63.3,13.8-63.3,50.3c0,34.2,30.6,43.9,58.5,50.5
		c26.8,6.4,58.5,5.9,58.5,30.6c0,26-22.5,34-48.8,34c-27.6,0-48.5-15.8-48.5-44.4l-24.5,2.6C1186.8,778.8,1221.3,798.5,1260.6,798.5
		"/>
	<polygon points="1493.5,795.8 1608.9,795.8 1608.9,775.1 1516.5,775.1 1516.5,715.9 1599.5,715.9 1599.5,695.2 1516.5,695.2 
		1516.5,637.8 1608.9,637.8 1608.9,617.1 1493.5,617.1 	"/>
</g>
</svg>
