<svg width="601" height="74" viewBox="0 0 601 74" fill="none" xmlns="http://www.w3.org/2000/svg">
<g style="mix-blend-mode:difference">
<path d="M34.2 71V8.89999H57.5V0.999995H1.8V8.89999H25.1V71H34.2ZM77.7242 71V39.7H112.824V71H121.924V0.999995H112.824V31.6H77.7242V0.999995H68.6242V71H77.7242ZM185.746 71V62.9H149.546V39.7H182.046V31.6H149.546V9.1H185.746V0.999995H140.546V71H185.746ZM234.113 71V39.7H266.613V31.6H234.113V9.1H270.313V0.999995H225.113V71H234.113ZM309.767 72.2C327.567 72.2 337.167 63.6 337.167 47.9V0.999995H328.067V47.9C328.067 59 319.467 64.2 309.767 64.2C300.067 64.2 291.567 59 291.567 47.9V0.999995H282.467V47.9C282.467 63.6 291.967 72.2 309.767 72.2ZM379.989 71V8.89999H403.289V0.999995H347.589V8.89999H370.889V71H379.989ZM441.013 72.2C458.813 72.2 468.413 63.6 468.413 47.9V0.999995H459.313V47.9C459.313 59 450.713 64.2 441.013 64.2C431.313 64.2 422.813 59 422.813 47.9V0.999995H413.713V47.9C413.713 63.6 423.213 72.2 441.013 72.2ZM535.935 53.5C535.935 46.3 533.435 41.2 526.835 38.7C532.935 36.6 537.635 30.2 537.635 21.6C537.635 2.6 522.435 0.999995 510.035 0.999995H486.335V71H495.335V42H510.935C523.235 42 526.935 45.2 526.935 54.5C526.935 64.2 527.635 67.5 529.935 71H539.835L539.935 70.7C536.535 66.4 535.935 61.6 535.935 53.5ZM495.335 34.3V8.8H510.035C518.535 8.8 528.735 8.8 528.735 22C528.735 33.6 518.535 34.3 509.935 34.3H495.335ZM599.746 71V62.9H563.546V39.7H596.046V31.6H563.546V9.1H599.746V0.999995H554.546V71H599.746Z" fill="black"/>
<path d="M34.2 71V72H35.2V71H34.2ZM34.2 8.89999V7.89999H33.2V8.89999H34.2ZM57.5 8.89999V9.89999H58.5V8.89999H57.5ZM57.5 0.999995H58.5V-4.76837e-06H57.5V0.999995ZM1.8 0.999995V-4.76837e-06H0.8V0.999995H1.8ZM1.8 8.89999H0.8V9.89999H1.8V8.89999ZM25.1 8.89999H26.1V7.89999H25.1V8.89999ZM25.1 71H24.1V72H25.1V71ZM35.2 71V8.89999H33.2V71H35.2ZM34.2 9.89999H57.5V7.89999H34.2V9.89999ZM58.5 8.89999V0.999995H56.5V8.89999H58.5ZM57.5 -4.76837e-06H1.8V2H57.5V-4.76837e-06ZM0.8 0.999995V8.89999H2.8V0.999995H0.8ZM1.8 9.89999H25.1V7.89999H1.8V9.89999ZM24.1 8.89999V71H26.1V8.89999H24.1ZM25.1 72H34.2V70H25.1V72ZM77.7242 71V72H78.7242V71H77.7242ZM77.7242 39.7V38.7H76.7242V39.7H77.7242ZM112.824 39.7H113.824V38.7H112.824V39.7ZM112.824 71H111.824V72H112.824V71ZM121.924 71V72H122.924V71H121.924ZM121.924 0.999995H122.924V-4.76837e-06H121.924V0.999995ZM112.824 0.999995V-4.76837e-06H111.824V0.999995H112.824ZM112.824 31.6V32.6H113.824V31.6H112.824ZM77.7242 31.6H76.7242V32.6H77.7242V31.6ZM77.7242 0.999995H78.7242V-4.76837e-06H77.7242V0.999995ZM68.6242 0.999995V-4.76837e-06H67.6242V0.999995H68.6242ZM68.6242 71H67.6242V72H68.6242V71ZM78.7242 71V39.7H76.7242V71H78.7242ZM77.7242 40.7H112.824V38.7H77.7242V40.7ZM111.824 39.7V71H113.824V39.7H111.824ZM112.824 72H121.924V70H112.824V72ZM122.924 71V0.999995H120.924V71H122.924ZM121.924 -4.76837e-06H112.824V2H121.924V-4.76837e-06ZM111.824 0.999995V31.6H113.824V0.999995H111.824ZM112.824 30.6H77.7242V32.6H112.824V30.6ZM78.7242 31.6V0.999995H76.7242V31.6H78.7242ZM77.7242 -4.76837e-06H68.6242V2H77.7242V-4.76837e-06ZM67.6242 0.999995V71H69.6242V0.999995H67.6242ZM68.6242 72H77.7242V70H68.6242V72ZM185.746 71V72H186.746V71H185.746ZM185.746 62.9H186.746V61.9H185.746V62.9ZM149.546 62.9H148.546V63.9H149.546V62.9ZM149.546 39.7V38.7H148.546V39.7H149.546ZM182.046 39.7V40.7H183.046V39.7H182.046ZM182.046 31.6H183.046V30.6H182.046V31.6ZM149.546 31.6H148.546V32.6H149.546V31.6ZM149.546 9.1V8.1H148.546V9.1H149.546ZM185.746 9.1V10.1H186.746V9.1H185.746ZM185.746 0.999995H186.746V-4.76837e-06H185.746V0.999995ZM140.546 0.999995V-4.76837e-06H139.546V0.999995H140.546ZM140.546 71H139.546V72H140.546V71ZM186.746 71V62.9H184.746V71H186.746ZM185.746 61.9H149.546V63.9H185.746V61.9ZM150.546 62.9V39.7H148.546V62.9H150.546ZM149.546 40.7H182.046V38.7H149.546V40.7ZM183.046 39.7V31.6H181.046V39.7H183.046ZM182.046 30.6H149.546V32.6H182.046V30.6ZM150.546 31.6V9.1H148.546V31.6H150.546ZM149.546 10.1H185.746V8.1H149.546V10.1ZM186.746 9.1V0.999995H184.746V9.1H186.746ZM185.746 -4.76837e-06H140.546V2H185.746V-4.76837e-06ZM139.546 0.999995V71H141.546V0.999995H139.546ZM140.546 72H185.746V70H140.546V72ZM234.113 71V72H235.113V71H234.113ZM234.113 39.7V38.7H233.113V39.7H234.113ZM266.613 39.7V40.7H267.613V39.7H266.613ZM266.613 31.6H267.613V30.6H266.613V31.6ZM234.113 31.6H233.113V32.6H234.113V31.6ZM234.113 9.1V8.1H233.113V9.1H234.113ZM270.313 9.1V10.1H271.313V9.1H270.313ZM270.313 0.999995H271.313V-4.76837e-06H270.313V0.999995ZM225.113 0.999995V-4.76837e-06H224.113V0.999995H225.113ZM225.113 71H224.113V72H225.113V71ZM235.113 71V39.7H233.113V71H235.113ZM234.113 40.7H266.613V38.7H234.113V40.7ZM267.613 39.7V31.6H265.613V39.7H267.613ZM266.613 30.6H234.113V32.6H266.613V30.6ZM235.113 31.6V9.1H233.113V31.6H235.113ZM234.113 10.1H270.313V8.1H234.113V10.1ZM271.313 9.1V0.999995H269.313V9.1H271.313ZM270.313 -4.76837e-06H225.113V2H270.313V-4.76837e-06ZM224.113 0.999995V71H226.113V0.999995H224.113ZM225.113 72H234.113V70H225.113V72ZM337.167 0.999995H338.167V-4.76837e-06H337.167V0.999995ZM328.067 0.999995V-4.76837e-06H327.067V0.999995H328.067ZM291.567 0.999995H292.567V-4.76837e-06H291.567V0.999995ZM282.467 0.999995V-4.76837e-06H281.467V0.999995H282.467ZM309.767 73.2C318.814 73.2 325.936 71.0154 330.807 66.6848C335.696 62.3372 338.167 55.9595 338.167 47.9H336.167C336.167 55.5405 333.838 61.3128 329.478 65.1902C325.098 69.0846 318.521 71.2 309.767 71.2V73.2ZM338.167 47.9V0.999995H336.167V47.9H338.167ZM337.167 -4.76837e-06H328.067V2H337.167V-4.76837e-06ZM327.067 0.999995V47.9H329.067V0.999995H327.067ZM327.067 47.9C327.067 53.1623 325.043 56.9435 321.93 59.4313C318.788 61.9427 314.452 63.2 309.767 63.2V65.2C314.782 65.2 319.596 63.8573 323.179 60.9937C326.791 58.1065 329.067 53.7377 329.067 47.9H327.067ZM309.767 63.2C305.082 63.2 300.773 61.9429 297.657 59.4336C294.57 56.9477 292.567 53.1665 292.567 47.9H290.567C290.567 53.7335 292.815 58.1023 296.403 60.9914C299.961 63.8571 304.752 65.2 309.767 65.2V63.2ZM292.567 47.9V0.999995H290.567V47.9H292.567ZM291.567 -4.76837e-06H282.467V2H291.567V-4.76837e-06ZM281.467 0.999995V47.9H283.467V0.999995H281.467ZM281.467 47.9C281.467 55.9564 283.911 62.3342 288.776 66.683C293.622 71.0154 300.721 73.2 309.767 73.2V71.2C301.014 71.2 294.463 69.0846 290.109 65.192C285.773 61.3158 283.467 55.5436 283.467 47.9H281.467ZM379.989 71V72H380.989V71H379.989ZM379.989 8.89999V7.89999H378.989V8.89999H379.989ZM403.289 8.89999V9.89999H404.289V8.89999H403.289ZM403.289 0.999995H404.289V-4.76837e-06H403.289V0.999995ZM347.589 0.999995V-4.76837e-06H346.589V0.999995H347.589ZM347.589 8.89999H346.589V9.89999H347.589V8.89999ZM370.889 8.89999H371.889V7.89999H370.889V8.89999ZM370.889 71H369.889V72H370.889V71ZM380.989 71V8.89999H378.989V71H380.989ZM379.989 9.89999H403.289V7.89999H379.989V9.89999ZM404.289 8.89999V0.999995H402.289V8.89999H404.289ZM403.289 -4.76837e-06H347.589V2H403.289V-4.76837e-06ZM346.589 0.999995V8.89999H348.589V0.999995H346.589ZM347.589 9.89999H370.889V7.89999H347.589V9.89999ZM369.889 8.89999V71H371.889V8.89999H369.889ZM370.889 72H379.989V70H370.889V72ZM468.413 0.999995H469.413V-4.76837e-06H468.413V0.999995ZM459.313 0.999995V-4.76837e-06H458.313V0.999995H459.313ZM422.813 0.999995H423.813V-4.76837e-06H422.813V0.999995ZM413.713 0.999995V-4.76837e-06H412.713V0.999995H413.713ZM441.013 73.2C450.06 73.2 457.183 71.0154 462.053 66.6848C466.942 62.3372 469.413 55.9595 469.413 47.9H467.413C467.413 55.5405 465.084 61.3128 460.724 65.1902C456.344 69.0846 449.767 71.2 441.013 71.2V73.2ZM469.413 47.9V0.999995H467.413V47.9H469.413ZM468.413 -4.76837e-06H459.313V2H468.413V-4.76837e-06ZM458.313 0.999995V47.9H460.313V0.999995H458.313ZM458.313 47.9C458.313 53.1623 456.289 56.9435 453.176 59.4313C450.034 61.9427 445.699 63.2 441.013 63.2V65.2C446.028 65.2 450.842 63.8573 454.425 60.9937C458.037 58.1065 460.313 53.7377 460.313 47.9H458.313ZM441.013 63.2C436.328 63.2 432.019 61.9429 428.903 59.4336C425.816 56.9477 423.813 53.1665 423.813 47.9H421.813C421.813 53.7335 424.061 58.1023 427.649 60.9914C431.207 63.8571 435.998 65.2 441.013 65.2V63.2ZM423.813 47.9V0.999995H421.813V47.9H423.813ZM422.813 -4.76837e-06H413.713V2H422.813V-4.76837e-06ZM412.713 0.999995V47.9H414.713V0.999995H412.713ZM412.713 47.9C412.713 55.9564 415.157 62.3342 420.022 66.683C424.868 71.0154 431.967 73.2 441.013 73.2V71.2C432.26 71.2 425.709 69.0846 421.355 65.192C417.019 61.3158 414.713 55.5436 414.713 47.9H412.713ZM526.835 38.7L526.51 37.7545L523.894 38.6551L526.481 39.6352L526.835 38.7ZM486.335 0.999995V-4.76837e-06H485.335V0.999995H486.335ZM486.335 71H485.335V72H486.335V71ZM495.335 71V72H496.335V71H495.335ZM495.335 42V41H494.335V42H495.335ZM529.935 71L529.099 71.5492L529.396 72H529.935V71ZM539.835 71V72H540.556L540.784 71.3162L539.835 71ZM539.935 70.7L540.884 71.0162L541.055 70.5036L540.72 70.0798L539.935 70.7ZM495.335 34.3H494.335V35.3H495.335V34.3ZM495.335 8.8V7.8H494.335V8.8H495.335ZM536.935 53.5C536.935 49.7931 536.293 46.5252 534.724 43.8339C533.144 41.123 530.674 39.085 527.189 37.7648L526.481 39.6352C529.596 40.815 531.676 42.577 532.996 44.8411C534.327 47.1248 534.935 50.0069 534.935 53.5H536.935ZM527.161 39.6455C533.719 37.3876 538.635 30.5654 538.635 21.6H536.635C536.635 29.8345 532.151 35.8124 526.51 37.7545L527.161 39.6455ZM538.635 21.6C538.635 16.7168 537.658 12.8736 535.934 9.86804C534.206 6.85683 531.766 4.75009 528.946 3.28731C523.357 0.388689 516.232 -4.76837e-06 510.035 -4.76837e-06V2C516.238 2 522.913 2.4113 528.025 5.06269C530.555 6.37491 532.689 8.23067 534.199 10.8632C535.712 13.5014 536.635 16.9832 536.635 21.6H538.635ZM510.035 -4.76837e-06H486.335V2H510.035V-4.76837e-06ZM485.335 0.999995V71H487.335V0.999995H485.335ZM486.335 72H495.335V70H486.335V72ZM496.335 71V42H494.335V71H496.335ZM495.335 43H510.935V41H495.335V43ZM510.935 43C517.067 43 520.752 43.8134 522.924 45.5445C525.023 47.2169 525.935 49.9451 525.935 54.5H527.935C527.935 49.7549 526.997 46.2331 524.171 43.9805C521.418 41.7866 517.104 41 510.935 41V43ZM525.935 54.5C525.935 64.2219 526.626 67.7849 529.099 71.5492L530.771 70.4508C528.645 67.2151 527.935 64.1781 527.935 54.5H525.935ZM529.935 72H539.835V70H529.935V72ZM540.784 71.3162L540.884 71.0162L538.986 70.3838L538.886 70.6838L540.784 71.3162ZM540.72 70.0798C537.551 66.0719 536.935 61.5891 536.935 53.5H534.935C534.935 61.6109 535.52 66.7281 539.151 71.3202L540.72 70.0798ZM496.335 34.3V8.8H494.335V34.3H496.335ZM495.335 9.8H510.035V7.8H495.335V9.8ZM510.035 9.8C514.347 9.8 518.782 9.81796 522.157 11.3596C523.806 12.1127 525.176 13.222 526.146 14.8748C527.122 16.5381 527.735 18.8257 527.735 22H529.735C529.735 18.5743 529.073 15.9119 527.871 13.8627C526.663 11.803 524.952 10.4372 522.988 9.54039C519.138 7.78203 514.223 7.8 510.035 7.8V9.8ZM527.735 22C527.735 24.7514 527.132 26.7721 526.166 28.2749C525.201 29.7763 523.825 30.8371 522.151 31.5875C518.748 33.113 514.257 33.3 509.935 33.3V35.3C514.214 35.3 519.122 35.137 522.969 33.4125C524.92 32.5379 526.632 31.2487 527.848 29.3563C529.064 27.4654 529.735 25.0486 529.735 22H527.735ZM509.935 33.3H495.335V35.3H509.935V33.3ZM599.746 71V72H600.746V71H599.746ZM599.746 62.9H600.746V61.9H599.746V62.9ZM563.546 62.9H562.546V63.9H563.546V62.9ZM563.546 39.7V38.7H562.546V39.7H563.546ZM596.046 39.7V40.7H597.046V39.7H596.046ZM596.046 31.6H597.046V30.6H596.046V31.6ZM563.546 31.6H562.546V32.6H563.546V31.6ZM563.546 9.1V8.1H562.546V9.1H563.546ZM599.746 9.1V10.1H600.746V9.1H599.746ZM599.746 0.999995H600.746V-4.76837e-06H599.746V0.999995ZM554.546 0.999995V-4.76837e-06H553.546V0.999995H554.546ZM554.546 71H553.546V72H554.546V71ZM600.746 71V62.9H598.746V71H600.746ZM599.746 61.9H563.546V63.9H599.746V61.9ZM564.546 62.9V39.7H562.546V62.9H564.546ZM563.546 40.7H596.046V38.7H563.546V40.7ZM597.046 39.7V31.6H595.046V39.7H597.046ZM596.046 30.6H563.546V32.6H596.046V30.6ZM564.546 31.6V9.1H562.546V31.6H564.546ZM563.546 10.1H599.746V8.1H563.546V10.1ZM600.746 9.1V0.999995H598.746V9.1H600.746ZM599.746 -4.76837e-06H554.546V2H599.746V-4.76837e-06ZM553.546 0.999995V71H555.546V0.999995H553.546ZM554.546 72H599.746V70H554.546V72Z" fill="black"/>
</g>
</svg>
