<svg xmlns="http://www.w3.org/2000/svg" width="93" height="14" viewBox="0 0 93 14"><g><g><path fill="#fff" d="M0 13.249h1.653v-5.53h6.383v5.53h1.66V.88h-1.66v5.406H1.653V.88H0z"/></g><g><path fill="#fff" d="M26.011 12.063c-1.439 0-2.564-.498-3.277-1.377-.491-.616-.912-1.924-.912-3.64 0-1.593.342-2.9.962-3.697.549-.692 1.639-1.322 3.292-1.322 1.439 0 2.457.478 3.113 1.398.634.886.983 2.015.983 3.62 0 1.592-.342 2.755-.983 3.641-.648.92-1.667 1.377-3.178 1.377zm0 1.378c3.855 0 6.02-2.617 6.02-6.396 0-3.73-2.165-6.395-6.02-6.395-3.91 0-6.041 2.65-6.041 6.395 0 4.119 2.187 6.396 6.041 6.396z"/></g><g><path fill="#fff" d="M46.756 13.463c3.234 0 4.98-1.523 4.98-4.291V.88h-1.653v8.285c0 1.959-1.568 2.88-3.327 2.88-1.767 0-3.313-.921-3.313-2.88V.88H41.79v8.285c.007 2.775 1.731 4.298 4.966 4.298z"/></g><g><path fill="#fff" d="M67.6 13.444c2.459 0 5.13-.81 5.13-3.814 0-2.63-2.166-3.073-4.695-3.46-1.724-.264-3.655-.707-3.655-2.105 0-1.446 1.546-2.083 2.786-2.083 2.095 0 3.363 1.059 3.398 2.914l1.71-.298C72.004 1.664 69.838.66 67.202.66c-2.073 0-4.51.955-4.51 3.481 0 2.368 2.18 3.039 4.168 3.496 1.91.443 4.167.408 4.167 2.118 0 1.8-1.602 2.353-3.476 2.353-1.967 0-3.456-1.094-3.456-3.073l-1.745.18c-.007 2.872 2.45 4.229 5.25 4.229z"/></g><g><path fill="#fff" d="M84.2 13.249h8.222v-1.433h-6.583V7.718h5.913V6.286h-5.913V2.313h6.583V.88H84.2z"/></g></g></svg>